# xmcd
#
# Track frame offsets:
#	150
#	8860
#	22055
#	34130
#	47030
#	62255
#	77330
#	88880
#	102380
#	113330
#	123155
#	132080
#	144830
#	158030
#	171680
#	182705
#	198230
#	211355
#	223225
#	236175
#	246230
#	260480
#
# Disc length: 3644 seconds
#
# Revision: 1
# Processed by: cddbd v1.5.1PL0 Copyright (c) Steve Scherf et al.
# Submitted via: audiograbber 1.83.01
#
DISCID=330e3a16
DTITLE=BOXCAR WILLIE - Pure Country Magic
DYEAR=1991
DGENRE=Country
TTITLE0=Honky tonk blues
TTITLE1=Heartaches by the number
TTITLE2=Orange Blossom Special
TTITLE3=Crying my heart out over you
TTITLE4=Smoke, smoke, smoke that cigarette
TTITLE5=T for Texas
TTITLE6=Nobody's darlin' but mine
TTITLE7=Waterloo
TTITLE8=Alabam
TTITLE9=Jesse James robbed trains
TTITLE10=Why don't you love me
TTITLE11=See you later alligator
TTITLE12=Walkin' holes in my shoes
TTITLE13=Wild side of life
TTITLE14=Walk on by
TTITLE15=Cowboys and horses, hobos and trains
TTITLE16=Slow poke
TTITLE17=Bo Weevil
TTITLE18=The unclouded day
TTITLE19=Chattanooga shoe shine boy
TTITLE20=Hard times come easy for me
TTITLE21=Keep on the sunny side
EXTD=
EXTT0=
EXTT1=
EXTT2=
EXTT3=
EXTT4=
EXTT5=
EXTT6=
EXTT7=
EXTT8=
EXTT9=
EXTT10=
EXTT11=
EXTT12=
EXTT13=
EXTT14=
EXTT15=
EXTT16=
EXTT17=
EXTT18=
EXTT19=
EXTT20=
EXTT21=
PLAYORDER=
